<?xml version="1.0" encoding="utf-8"?>
<!-- Generator: Adobe Illustrator 15.1.0, SVG Export Plug-In . SVG Version: 6.00 Build 0)  -->
<!DOCTYPE svg PUBLIC "-//W3C//DTD SVG 1.1//EN" "http://www.w3.org/Graphics/SVG/1.1/DTD/svg11.dtd" [
	<!ENTITY ns_flows "http://ns.adobe.com/Flows/1.0/">
	<!ENTITY ns_extend "http://ns.adobe.com/Extensibility/1.0/">
	<!ENTITY ns_ai "http://ns.adobe.com/AdobeIllustrator/10.0/">
	<!ENTITY ns_graphs "http://ns.adobe.com/Graphs/1.0/">
	<!ENTITY ns_vars "http://ns.adobe.com/Variables/1.0/">
	<!ENTITY ns_imrep "http://ns.adobe.com/ImageReplacement/1.0/">
	<!ENTITY ns_sfw "http://ns.adobe.com/SaveForWeb/1.0/">
	<!ENTITY ns_custom "http://ns.adobe.com/GenericCustomNamespace/1.0/">
	<!ENTITY ns_adobe_xpath "http://ns.adobe.com/XPath/1.0/">
]>
<svg version="1.1"
	 xmlns:x="&ns_extend;" xmlns:i="&ns_ai;" xmlns:graph="&ns_graphs;" i:viewOrigin="523.29 -278.2539" i:rulerOrigin="-523.29 394.6689" i:pageBounds="523.29 -278.2539 664.501 -394.6689"
	 xmlns="http://www.w3.org/2000/svg" xmlns:xlink="http://www.w3.org/1999/xlink" xmlns:a="http://ns.adobe.com/AdobeSVGViewerExtensions/3.0/"
	 x="0px" y="0px" width="141.211px" height="116.415px" viewBox="0 0 141.211 116.415" enable-background="new 0 0 141.211 116.415"
	 xml:space="preserve">
<metadata>
	<variableSets  xmlns="&ns_vars;">
		<variableSet  locked="none" varSetName="binding1">
			<variables></variables>
			<v:sampleDataSets  xmlns:v="&ns_vars;" xmlns="&ns_custom;"></v:sampleDataSets>
		</variableSet>
	</variableSets>
</metadata>
<g id="Layer_7" i:layer="yes" i:dimmedPercent="50" i:rgbTrio="#4F00FFFFFFFF">
	<g>
		<g i:knockout="Off">
			<path i:knockout="Off" fill="#adff63" d="M69.869,26.164c1.616-0.938,7.794-5.432,7.883-9.42c0-1.568-1.03-3.182-3.413-3.139
				c-2.498,0.045-3.812,1.795-4.47,2.152c-0.866-0.492-2.257-2.307-4.752-2.195c-3.002,0.135-3.405,2.957-3.181,3.943
				C62.295,21.27,68.298,25.391,69.869,26.164z"/>
		</g>
		<g>
			<circle i:knockout="Off" fill="#adff63" cx="137.611" cy="58.193" r="3.6"/>
			<circle i:knockout="Off" fill="#adff63" cx="3.6" cy="58.193" r="3.6"/>
			<circle i:knockout="Off" fill="#adff63" cx="117.986" cy="105.573" r="1.98"/>
			<circle i:knockout="Off" fill="#adff63" cx="23.225" cy="10.812" r="1.98"/>
			<circle i:knockout="Off" fill="#adff63" cx="23.225" cy="105.573" r="1.98"/>
			<circle i:knockout="Off" fill="#adff63" cx="117.986" cy="10.812" r="1.98"/>
			<circle i:knockout="Off" fill="#adff63" cx="132.511" cy="83.833" r="3.059"/>
			<circle i:knockout="Off" fill="#adff63" cx="8.701" cy="32.549" r="3.059"/>
			<path i:knockout="Off" fill="#adff63" d="M7.53,81.007c-1.561,0.646-2.303,2.438-1.657,3.996
				c0.647,1.562,2.438,2.303,3.998,1.658c1.562-0.648,2.303-2.438,1.656-3.998C10.88,81.103,9.09,80.36,7.53,81.007z"/>
			<circle i:knockout="Off" fill="#adff63" cx="132.511" cy="32.549" r="3.059"/>
			<circle i:knockout="Off" fill="#adff63" cx="136.323" cy="45.12" r="3.419"/>
			<circle i:knockout="Off" fill="#adff63" cx="4.888" cy="71.265" r="3.42"/>
			<circle i:knockout="Off" fill="#adff63" cx="126.319" cy="95.419" r="2.52"/>
			<circle i:knockout="Off" fill="#adff63" cx="14.892" cy="20.966" r="2.519"/>
			<circle i:knockout="Off" fill="#adff63" cx="33.379" cy="113.906" r="1.26"/>
			<circle i:knockout="Off" fill="#adff63" cx="107.833" cy="2.479" r="1.26"/>
			<circle i:knockout="Off" fill="#adff63" cx="136.323" cy="71.263" r="3.419"/>
			<circle i:knockout="Off" fill="#adff63" cx="4.889" cy="45.119" r="3.419"/>
			<circle i:knockout="Off" fill="#adff63" cx="107.832" cy="113.904" r="1.26"/>
			<circle i:knockout="Off" fill="#adff63" cx="33.379" cy="2.478" r="1.26"/>
			<circle i:knockout="Off" fill="#adff63" cx="14.892" cy="95.418" r="2.519"/>
			<circle i:knockout="Off" fill="#adff63" cx="126.319" cy="20.964" r="2.52"/>
			<path i:knockout="Off" fill="#adff63" d="M115.052,24.038C105.748,8.761,89.701,0,71.027,0v0.376V1.25v0.391L71.026,1.25V0.376V0
				c-3.207,0-6.503,0.265-9.797,0.788C37.919,4.486,19.681,24.766,18.806,47.96c-0.016,0.408-0.006,0.809-0.014,1.215
				c-0.004,0.095-0.013,0.188-0.017,0.283c-0.092,2.489-0.039,4.941,0.137,7.348c0.038,0.507,0.096,1.005,0.145,1.508
				c0.054,0.571,0.099,1.146,0.168,1.711c0.137,1.101,0.301,2.189,0.492,3.265c0.002,0.01,0.003,0.021,0.005,0.031
				c0.141,0.784,0.312,1.552,0.481,2.32c0.077,0.345,0.138,0.697,0.221,1.038c0.027,0.114,0.062,0.225,0.09,0.338
				c2.854,11.663,9.021,21.468,17.637,27.445c0.051,4.654,1.774,8.909,5.03,12.383c5.619,5.993,15.742,9.57,27.078,9.57
				c11.435,0,21.586-3.646,27.154-9.755c3.343-3.667,5.018-8.185,4.888-13.138c6.691-5.386,10.936-9.548,13.843-15.31
				c1.987-3.94,3.479-8.002,4.53-12.108c0.116-0.449,0.246-0.897,0.351-1.348c0.114-0.493,0.2-0.988,0.301-1.482
				c0.132-0.646,0.271-1.294,0.379-1.941c0.112-0.676,0.195-1.352,0.282-2.027c0.054-0.412,0.117-0.825,0.162-1.237
				c0.293-2.713,0.382-5.424,0.275-8.116C122.319,40.856,119.864,31.94,115.052,24.038z M72.099,4.519
				c0.352,0.006,0.702,0.014,1.05,0.028c0.267,0.01,0.53,0.023,0.794,0.038c0.346,0.018,0.689,0.038,1.032,0.063
				c0.261,0.019,0.521,0.04,0.781,0.062c0.343,0.029,0.684,0.062,1.023,0.098c0.253,0.027,0.506,0.055,0.757,0.085
				c0.344,0.042,0.686,0.087,1.026,0.135c0.243,0.034,0.486,0.068,0.729,0.106c0.348,0.054,0.692,0.113,1.036,0.173
				c0.229,0.041,0.459,0.08,0.688,0.123c0.357,0.068,0.712,0.142,1.066,0.217c0.21,0.044,0.421,0.087,0.63,0.134
				c0.381,0.086,0.758,0.18,1.134,0.273c0.177,0.044,0.355,0.086,0.532,0.132c0.448,0.117,0.892,0.243,1.334,0.372
				c0.1,0.029,0.201,0.056,0.302,0.085c1.096,0.328,2.171,0.691,3.225,1.088c0.11,0.041,0.218,0.086,0.326,0.128
				c0.41,0.158,0.818,0.318,1.222,0.486c0.152,0.063,0.302,0.131,0.453,0.196c0.356,0.153,0.712,0.308,1.062,0.468
				c0.168,0.077,0.333,0.157,0.5,0.236c0.33,0.156,0.659,0.313,0.984,0.476c0.173,0.086,0.343,0.175,0.515,0.264
				c0.314,0.163,0.628,0.327,0.938,0.496c0.172,0.094,0.343,0.189,0.513,0.285c0.306,0.171,0.609,0.346,0.91,0.523
				c0.167,0.099,0.333,0.198,0.498,0.298c0.3,0.182,0.598,0.368,0.893,0.556c0.16,0.103,0.32,0.205,0.479,0.31
				c0.297,0.195,0.591,0.394,0.883,0.595c0.149,0.103,0.3,0.206,0.448,0.31c0.3,0.211,0.595,0.428,0.889,0.646
				c0.135,0.1,0.271,0.199,0.405,0.301c0.311,0.235,0.616,0.477,0.92,0.719c0.111,0.089,0.225,0.176,0.335,0.266
				c0.341,0.277,0.677,0.561,1.009,0.847c0.069,0.06,0.141,0.118,0.21,0.178c1.216,1.06,2.372,2.179,3.467,3.352
				c0.069,0.074,0.136,0.149,0.203,0.224c0.288,0.312,0.574,0.627,0.853,0.947c0.097,0.11,0.189,0.223,0.285,0.333
				c0.247,0.289,0.493,0.58,0.733,0.875c0.104,0.128,0.207,0.259,0.311,0.388c0.225,0.282,0.447,0.565,0.665,0.852
				c0.107,0.141,0.213,0.283,0.318,0.425c0.209,0.281,0.415,0.563,0.618,0.849c0.105,0.148,0.21,0.298,0.313,0.448
				c0.196,0.284,0.39,0.57,0.58,0.858c0.102,0.154,0.203,0.308,0.303,0.463c0.188,0.291,0.371,0.584,0.552,0.879
				c0.096,0.155,0.19,0.31,0.283,0.466c0.181,0.301,0.355,0.604,0.529,0.91c0.088,0.154,0.176,0.308,0.262,0.462
				c0.176,0.318,0.347,0.639,0.515,0.961c0.076,0.144,0.153,0.287,0.228,0.432c0.178,0.349,0.35,0.7,0.52,1.054
				c0.059,0.122,0.12,0.243,0.178,0.366c0.198,0.422,0.39,0.847,0.575,1.274c0.024,0.056,0.05,0.109,0.073,0.164
				c0.425,0.984,0.816,1.985,1.175,3c0.032,0.09,0.061,0.181,0.092,0.271c0.142,0.409,0.28,0.82,0.412,1.235
				c0.047,0.147,0.09,0.297,0.135,0.444c0.11,0.359,0.219,0.719,0.32,1.081c0.049,0.175,0.095,0.352,0.142,0.527
				c0.091,0.337,0.18,0.674,0.264,1.013c0.048,0.193,0.092,0.389,0.138,0.584c0.075,0.324,0.149,0.65,0.219,0.978
				c0.043,0.203,0.083,0.407,0.124,0.611c0.063,0.322,0.125,0.646,0.183,0.971c0.037,0.208,0.072,0.417,0.106,0.626
				c0.053,0.321,0.102,0.645,0.148,0.969c0.03,0.213,0.061,0.426,0.088,0.64c0.043,0.324,0.08,0.649,0.116,0.976
				c0.023,0.214,0.047,0.428,0.067,0.642c0.032,0.331,0.059,0.662,0.084,0.994c0.016,0.211,0.033,0.421,0.047,0.633
				c0.008,0.128,0.013,0.257,0.019,0.385c0.015,0.317,0.037,0.632,0.045,0.95c0.005,0.1,0.01,0.199,0.013,0.299
				c0.004,0.139,0.007,0.277,0.01,0.416c0.006,0.235,0.006,0.472,0.008,0.707c0.001,0.098,0.005,0.195,0.005,0.293
				c0,0.077,0.001,0.153,0.001,0.23c-0.002,0.469-0.012,0.938-0.026,1.409c-0.003,0.08-0.003,0.16-0.006,0.24
				c-0.02,0.558-0.05,1.117-0.089,1.678c-0.007,0.101-0.018,0.202-0.025,0.303c-0.034,0.453-0.072,0.907-0.118,1.361
				c-0.02,0.187-0.045,0.374-0.066,0.562c-0.042,0.369-0.084,0.737-0.135,1.106c-0.029,0.219-0.064,0.438-0.098,0.657
				c-0.051,0.338-0.102,0.677-0.159,1.016c-0.04,0.233-0.084,0.468-0.127,0.701c-0.061,0.326-0.121,0.652-0.188,0.979
				c-0.049,0.24-0.102,0.479-0.154,0.72c-0.07,0.32-0.142,0.642-0.219,0.962c-0.059,0.244-0.119,0.489-0.182,0.733
				c-0.08,0.317-0.164,0.635-0.251,0.952c-0.067,0.246-0.137,0.492-0.208,0.737c-0.091,0.316-0.187,0.632-0.284,0.948
				c-0.077,0.246-0.153,0.493-0.233,0.739c-0.104,0.317-0.212,0.635-0.322,0.952c-0.084,0.243-0.168,0.486-0.256,0.73
				c-0.107,0.296-0.22,0.591-0.333,0.887c-0.243,0.652-0.52,1.302-0.788,1.952c-0.071,0.171-0.141,0.342-0.216,0.512
				c-0.163,0.372-0.335,0.743-0.507,1.115c-0.085,0.184-0.166,0.366-0.253,0.55c-0.264,0.555-0.538,1.108-0.823,1.661
				c-0.827,1.602-1.807,3.071-2.909,4.481c-2.555,3.264-5.865,6.183-9.973,9.423c-0.411,0.324-0.81,0.644-1.236,0.975
				c-0.023,0.018-0.044,0.035-0.067,0.053c0.016,0.161,0.018,0.316,0.028,0.476c0.006,0.082,0.01,0.164,0.015,0.246
				c0.011,0.19,0.029,0.384,0.033,0.571c0.003,0.14-0.005,0.274-0.006,0.413c0,0.005,0,0.009,0,0.014
				c0.009,0.323-0.015,0.632-0.022,0.948c-0.01,0.108-0.021,0.218-0.029,0.326c-0.021,0.256-0.037,0.513-0.069,0.763
				c-0.021,0.156-0.053,0.307-0.077,0.46c-0.038,0.237-0.072,0.478-0.121,0.71c-0.03,0.147-0.073,0.29-0.108,0.437
				c-0.056,0.231-0.108,0.466-0.175,0.692c-0.041,0.142-0.094,0.278-0.14,0.418c-0.072,0.224-0.142,0.45-0.226,0.669
				c-0.054,0.142-0.118,0.277-0.176,0.417c-0.088,0.211-0.172,0.424-0.269,0.629c-0.062,0.134-0.136,0.262-0.202,0.394
				c-0.104,0.205-0.206,0.413-0.319,0.613c-0.069,0.122-0.147,0.239-0.221,0.359c-0.122,0.203-0.242,0.407-0.374,0.604
				c-0.077,0.117-0.164,0.228-0.245,0.343c-0.028,0.041-0.058,0.082-0.087,0.122c-0.11,0.153-0.216,0.309-0.332,0.458
				c-0.086,0.111-0.18,0.218-0.27,0.326c-0.151,0.187-0.302,0.375-0.462,0.556c-0.093,0.104-0.193,0.204-0.288,0.307
				c-0.167,0.18-0.333,0.36-0.508,0.534c-0.101,0.101-0.209,0.195-0.312,0.293c-0.179,0.17-0.356,0.342-0.544,0.506
				c-0.109,0.097-0.226,0.188-0.338,0.282c-0.19,0.16-0.379,0.322-0.577,0.477c-0.114,0.09-0.234,0.174-0.352,0.262
				c-0.204,0.153-0.407,0.309-0.618,0.456c-0.121,0.085-0.248,0.164-0.371,0.247c-0.215,0.145-0.429,0.29-0.65,0.429
				c-0.129,0.081-0.264,0.157-0.395,0.236c-0.224,0.135-0.445,0.27-0.675,0.398c-0.137,0.077-0.279,0.149-0.419,0.226
				c-0.23,0.124-0.461,0.25-0.697,0.369c-0.143,0.072-0.29,0.139-0.435,0.209c-0.24,0.116-0.479,0.233-0.725,0.345
				c-0.148,0.066-0.3,0.129-0.45,0.193c-0.247,0.107-0.495,0.216-0.747,0.318c-0.156,0.063-0.316,0.121-0.475,0.183
				c-0.252,0.098-0.504,0.196-0.761,0.289c-0.163,0.059-0.33,0.112-0.495,0.169c-0.257,0.089-0.512,0.178-0.772,0.261
				c-0.17,0.055-0.344,0.104-0.516,0.156c-0.26,0.079-0.52,0.159-0.783,0.233c-0.178,0.05-0.358,0.096-0.537,0.143
				c-0.262,0.07-0.522,0.141-0.787,0.206c-0.186,0.045-0.374,0.086-0.561,0.129c-0.263,0.062-0.525,0.123-0.791,0.18
				c-0.188,0.039-0.38,0.074-0.569,0.112c-0.268,0.053-0.534,0.106-0.804,0.155c-0.193,0.034-0.389,0.064-0.584,0.097
				c-0.268,0.044-0.535,0.09-0.806,0.129c-0.199,0.03-0.4,0.055-0.602,0.082c-0.268,0.036-0.534,0.073-0.804,0.104
				c-0.204,0.023-0.409,0.043-0.614,0.064c-0.268,0.028-0.535,0.058-0.804,0.081c-0.209,0.019-0.419,0.032-0.628,0.048
				c-0.266,0.02-0.531,0.041-0.798,0.057c-0.216,0.013-0.433,0.021-0.648,0.031c-0.262,0.012-0.522,0.025-0.784,0.033
				c-0.219,0.007-0.438,0.009-0.655,0.013c-0.262,0.005-0.522,0.011-0.784,0.011c-0.041,0-0.083,0.002-0.125,0.002
				c-0.183,0-0.365-0.006-0.547-0.008c-0.252-0.003-0.504-0.004-0.756-0.011c-0.225-0.005-0.449-0.016-0.674-0.024
				c-0.251-0.01-0.503-0.019-0.754-0.031c-0.225-0.013-0.447-0.029-0.672-0.044c-0.249-0.017-0.498-0.032-0.747-0.053
				c-0.229-0.019-0.455-0.042-0.683-0.064c-0.243-0.023-0.486-0.045-0.728-0.072c-0.229-0.025-0.457-0.056-0.686-0.084
				c-0.239-0.03-0.478-0.059-0.716-0.092c-0.23-0.032-0.458-0.07-0.688-0.105c-0.232-0.036-0.465-0.071-0.696-0.11
				c-0.235-0.04-0.468-0.086-0.702-0.13c-0.222-0.041-0.443-0.081-0.663-0.126c-0.236-0.048-0.471-0.101-0.705-0.152
				c-0.215-0.048-0.431-0.093-0.645-0.144c-0.236-0.056-0.469-0.116-0.702-0.176c-0.207-0.053-0.415-0.104-0.62-0.159
				c-0.238-0.064-0.473-0.135-0.709-0.203c-0.196-0.057-0.395-0.112-0.589-0.172c-0.238-0.073-0.473-0.152-0.708-0.229
				c-0.187-0.062-0.375-0.121-0.56-0.186c-0.239-0.083-0.474-0.172-0.709-0.259c-0.176-0.065-0.354-0.128-0.526-0.195
				c-0.237-0.092-0.469-0.19-0.702-0.287c-0.167-0.069-0.336-0.136-0.5-0.208c-0.235-0.102-0.464-0.21-0.694-0.317
				c-0.155-0.072-0.314-0.142-0.468-0.216c-0.23-0.112-0.454-0.229-0.679-0.347c-0.148-0.076-0.299-0.149-0.444-0.229
				c-0.224-0.121-0.44-0.248-0.658-0.373c-0.14-0.081-0.282-0.158-0.42-0.241c-0.216-0.13-0.424-0.266-0.634-0.4
				c-0.132-0.085-0.268-0.167-0.397-0.254c-0.209-0.14-0.409-0.285-0.611-0.43c-0.122-0.089-0.249-0.173-0.369-0.263
				c-0.2-0.15-0.392-0.307-0.585-0.461c-0.113-0.092-0.231-0.18-0.343-0.273c-0.188-0.157-0.368-0.322-0.549-0.485
				c-0.107-0.097-0.219-0.189-0.323-0.288c-0.177-0.166-0.344-0.34-0.513-0.511c-0.099-0.102-0.203-0.199-0.3-0.302
				c-0.163-0.174-0.315-0.354-0.47-0.533c-0.093-0.107-0.191-0.211-0.281-0.32c-0.15-0.183-0.289-0.372-0.431-0.561
				c-0.084-0.11-0.173-0.219-0.254-0.331c-0.013-0.02-0.026-0.038-0.04-0.058c-0.121-0.17-0.23-0.347-0.344-0.521
				c-0.077-0.119-0.16-0.234-0.233-0.354c-0.119-0.195-0.227-0.397-0.337-0.599c-0.068-0.124-0.144-0.246-0.208-0.372
				c-0.105-0.205-0.197-0.416-0.292-0.626c-0.06-0.129-0.125-0.255-0.18-0.386c-0.089-0.211-0.164-0.43-0.243-0.646
				c-0.049-0.136-0.105-0.268-0.151-0.405c-0.072-0.221-0.132-0.448-0.194-0.675c-0.039-0.139-0.085-0.274-0.119-0.415
				c-0.056-0.229-0.097-0.463-0.143-0.696c-0.028-0.145-0.064-0.287-0.088-0.434c-0.038-0.232-0.061-0.472-0.088-0.708
				c-0.019-0.154-0.044-0.305-0.057-0.462c-0.022-0.262-0.028-0.53-0.037-0.798c-0.003-0.067-0.008-0.133-0.01-0.2
				c-0.001-0.07-0.009-0.138-0.009-0.209c-0.002-0.243,0.012-0.494,0.021-0.742c0.006-0.159,0.004-0.315,0.014-0.478
				c0.001-0.009,0-0.018,0.001-0.027c-0.001,0-0.001-0.001-0.002-0.001c-0.435-0.271-0.849-0.574-1.271-0.864
				c-3.071-2.106-5.81-4.722-8.174-7.757c-2.525-3.244-4.618-6.957-6.227-11.027c-0.235-0.614-0.477-1.225-0.691-1.854
				c-1.927-5.503-3.004-11.577-3.079-17.971c-0.005-0.425,0.01-0.855,0.014-1.283c0.005-0.6-0.004-1.195,0.019-1.8
				c0.855-22.67,18.68-41.365,40.317-44.798c0.751-0.119,1.496-0.221,2.237-0.311c0.239-0.029,0.476-0.051,0.714-0.078
				c0.504-0.056,1.007-0.108,1.507-0.15c0.273-0.023,0.545-0.042,0.817-0.062c0.464-0.033,0.926-0.061,1.386-0.083
				c0.275-0.013,0.551-0.025,0.824-0.035c0.468-0.016,0.932-0.024,1.395-0.028c0.174-0.002,0.351-0.011,0.523-0.011
				c0.092,0,0.183,0.004,0.274,0.004C71.566,4.508,71.833,4.514,72.099,4.519z M71.027,2.906v0.346v1.25l-0.001-1.25L71.027,2.906
				L71.026,2.5h0.001V2.906z"/>
			<path i:knockout="Off" fill="#adff63" d="M78.811,67.801c0.222,0,0.439-0.016,0.655-0.041c-0.171,0.135-0.335,0.277-0.493,0.435
				c-2.2,2.199-2.2,5.77,0.001,7.973c2.201,2.199,5.771,2.199,7.971,0c0.157-0.158,0.3-0.324,0.435-0.494
				c-0.025,0.215-0.041,0.434-0.041,0.654c0,3.113,2.523,5.637,5.637,5.637s5.637-2.523,5.637-5.637
				c0-0.221-0.016-0.439-0.041-0.652c0.134,0.17,0.276,0.334,0.434,0.492c2.201,2.199,5.771,2.199,7.972,0
				c2.201-2.203,2.201-5.773,0-7.973c-0.157-0.157-0.322-0.3-0.494-0.435c0.217,0.025,0.435,0.041,0.657,0.041
				c3.113,0,5.636-2.523,5.636-5.637s-2.522-5.637-5.636-5.637c-0.223,0-0.44,0.016-0.657,0.041
				c0.172-0.133,0.337-0.277,0.494-0.434c2.201-2.201,2.201-5.77,0-7.971s-5.771-2.201-7.972-0.002
				c-0.157,0.158-0.3,0.322-0.434,0.492c0.025-0.215,0.041-0.432,0.041-0.654c0-3.113-2.523-5.637-5.637-5.637
				S87.338,44.887,87.338,48c0,0.223,0.016,0.439,0.041,0.656c-0.134-0.17-0.277-0.336-0.435-0.494
				c-2.2-2.199-5.77-2.199-7.972,0.002c-2.2,2.201-2.2,5.77,0,7.971c0.158,0.156,0.322,0.299,0.493,0.434
				c-0.216-0.025-0.434-0.041-0.655-0.041c-3.113,0-5.636,2.523-5.636,5.637S75.697,67.801,78.811,67.801z M92.975,49.354
				c7.075,0,12.811,5.734,12.811,12.811c0,7.075-5.735,12.812-12.811,12.812s-12.811-5.736-12.811-12.812
				C80.164,55.088,85.899,49.354,92.975,49.354z"/>
			<path i:knockout="Off" fill="#adff63" d="M61.117,68.194c-0.156-0.157-0.322-0.3-0.491-0.435
				c0.215,0.025,0.433,0.041,0.655,0.041c3.113,0,5.637-2.523,5.637-5.637s-2.523-5.637-5.637-5.637
				c-0.223,0-0.44,0.016-0.655,0.041c0.169-0.133,0.335-0.277,0.491-0.434c2.203-2.201,2.203-5.77,0-7.971
				c-2.2-2.201-5.77-2.201-7.97,0c-0.157,0.156-0.3,0.32-0.434,0.49c0.024-0.215,0.041-0.432,0.041-0.652
				c0-3.114-2.524-5.638-5.638-5.638s-5.636,2.523-5.636,5.638c0,0.221,0.017,0.439,0.041,0.654
				c-0.134-0.17-0.277-0.336-0.435-0.492c-2.201-2.201-5.771-2.201-7.972,0c-2.2,2.201-2.2,5.77,0,7.971
				c0.157,0.156,0.322,0.299,0.492,0.434c-0.215-0.025-0.432-0.041-0.654-0.041c-3.113,0-5.637,2.523-5.637,5.637
				s2.523,5.637,5.637,5.637c0.223,0,0.439-0.016,0.654-0.041c-0.17,0.135-0.335,0.277-0.492,0.435c-2.2,2.199-2.2,5.77,0.001,7.971
				c2.2,2.201,5.77,2.201,7.971,0c0.157-0.156,0.3-0.324,0.435-0.492c-0.024,0.215-0.041,0.432-0.041,0.654
				c0,3.113,2.522,5.637,5.636,5.637s5.638-2.523,5.638-5.637c0-0.221-0.017-0.439-0.041-0.652c0.134,0.168,0.276,0.334,0.434,0.49
				c2.2,2.201,5.77,2.201,7.97,0C63.32,73.964,63.32,70.394,61.117,68.194z M47.117,74.976c-7.074,0-12.81-5.736-12.81-12.812
				c0-7.076,5.735-12.811,12.81-12.811c7.076,0,12.811,5.734,12.811,12.811C59.928,69.239,54.193,74.976,47.117,74.976z"/>
			<path i:knockout="Off" fill="#adff63" d="M74.062,91.792c-1.979,0-3.58,1.669-3.597,3.732h-0.003v0.031v2.039
				c0.191-0.003,0.384-0.007,0.575-0.012c0.105-0.002,0.213-0.004,0.318-0.006c1.762-0.043,3.508-0.121,5.216-0.233
				c0.222-0.015,0.441-0.031,0.663-0.047c0.143-0.01,0.285-0.021,0.428-0.031v-1.741h-0.005
				C77.642,93.461,76.04,91.792,74.062,91.792z"/>
			<path i:knockout="Off" fill="#adff63" d="M76.021,98.707c-1.194,0.071-2.404,0.127-3.625,0.166
				c-0.582,0.019-1.167,0.032-1.753,0.043c-0.06,0.001-0.119,0.003-0.18,0.004v1.116v0.008h0.001
				c0.004,2.074,1.612,3.756,3.599,3.756c1.985,0,3.594-1.682,3.598-3.756h0.003v-1.445c-0.09,0.007-0.18,0.014-0.271,0.021
				C76.938,98.65,76.48,98.68,76.021,98.707z"/>
			<path i:knockout="Off" fill="#adff63" d="M65.461,91.792c-1.979,0-3.58,1.669-3.597,3.732h-0.003v0.031v1.875
				c0.17,0.01,0.34,0.019,0.51,0.027c0.153,0.009,0.305,0.019,0.458,0.025c1.771,0.086,3.568,0.13,5.368,0.132
				c0.091,0,0.182-0.001,0.272-0.002c0.197,0,0.395-0.002,0.592-0.003v-2.086h-0.004C69.041,93.461,67.44,91.792,65.461,91.792z"/>
			<path i:knockout="Off" fill="#adff63" d="M68.361,98.939c-0.445,0-0.89-0.004-1.335-0.009c-1.096-0.013-2.189-0.039-3.275-0.082
				c-0.558-0.022-1.113-0.048-1.666-0.078c-0.074-0.004-0.149-0.007-0.224-0.012v1.277v0.008h0.001
				c0.004,2.074,1.612,3.756,3.599,3.756s3.595-1.682,3.599-3.756h0.002v-1.109c-0.059,0-0.117,0.001-0.176,0.001
				C68.711,98.937,68.536,98.939,68.361,98.939z"/>
			<path i:knockout="Off" fill="#adff63" d="M82.307,91.583c-1.781,0-3.224,1.511-3.237,3.379h-0.003v0.027v2.164
				c0.194-0.018,0.39-0.033,0.583-0.051c0.041-0.004,0.084-0.008,0.125-0.012c1.639-0.15,3.223-0.331,4.728-0.538
				c0.244-0.034,0.481-0.069,0.721-0.104c0.108-0.016,0.217-0.031,0.324-0.048v-1.438h-0.004
				C85.529,93.094,84.088,91.583,82.307,91.583z"/>
			<path i:knockout="Off" fill="#adff63" d="M83.814,97.987c-0.77,0.098-1.557,0.189-2.36,0.274
				c-0.766,0.08-1.543,0.155-2.334,0.223c-0.018,0.001-0.036,0.003-0.054,0.004v0.556v0.006h0.001c0.003,1.878,1.451,3.4,3.239,3.4
				s3.235-1.522,3.238-3.4h0.002v-1.299c-0.078,0.012-0.157,0.021-0.236,0.033C84.82,97.854,84.322,97.922,83.814,97.987z"/>
			<path i:knockout="Off" fill="#adff63" d="M57.218,91.583c-1.781,0-3.224,1.511-3.237,3.379h-0.003v0.027v1.622
				c0.147,0.023,0.295,0.047,0.443,0.069c0.141,0.021,0.277,0.045,0.419,0.065c1.535,0.22,3.131,0.396,4.766,0.529
				c0.127,0.011,0.257,0.019,0.384,0.029c0.156,0.012,0.312,0.021,0.469,0.033v-2.349v-0.027h-0.003
				C60.441,93.094,58.999,91.583,57.218,91.583z"/>
			<path i:knockout="Off" fill="#adff63" d="M57.295,98.388c-0.279-0.03-0.556-0.062-0.832-0.095
				c-0.783-0.092-1.555-0.193-2.31-0.307c-0.059-0.009-0.118-0.016-0.176-0.024v1.082v0.006h0.001c0.003,1.878,1.451,3.4,3.239,3.4
				s3.236-1.522,3.239-3.4h0.001v-0.006v-0.376c-0.012-0.001-0.024-0.002-0.036-0.003C59.363,98.59,58.32,98.497,57.295,98.388z"/>
			<path i:knockout="Off" fill="#adff63" d="M89.538,91.265c-1.385,0-2.506,1.22-2.518,2.729h-0.002v0.023v2.15
				c0.081-0.014,0.164-0.026,0.244-0.04c0.191-0.032,0.378-0.066,0.565-0.1c1.234-0.222,2.395-0.46,3.453-0.717
				c0.185-0.045,0.358-0.092,0.537-0.138c0.08-0.021,0.161-0.041,0.24-0.062v-1.095v-0.023h-0.002
				C92.045,92.484,90.923,91.265,89.538,91.265z"/>
			<path i:knockout="Off" fill="#adff63" d="M88.317,97.298c-0.418,0.076-0.843,0.15-1.277,0.222
				c0.107,1.411,1.177,2.524,2.498,2.524c1.391,0,2.517-1.229,2.52-2.746h0.001v-0.006v-0.795c-0.037,0.01-0.074,0.019-0.111,0.028
				C90.84,96.802,89.625,97.061,88.317,97.298z"/>
			<path i:knockout="Off" fill="#adff63" d="M49.985,91.265c-1.385,0-2.506,1.22-2.518,2.729h-0.002v0.023v1.14
				c0.092,0.029,0.182,0.059,0.274,0.086c0.146,0.044,0.299,0.084,0.446,0.126c1.057,0.302,2.173,0.571,3.345,0.808
				c0.266,0.054,0.536,0.104,0.808,0.155c0.056,0.011,0.111,0.021,0.167,0.03v-2.345v-0.023h-0.002
				C52.492,92.484,51.37,91.265,49.985,91.265z"/>
			<path i:knockout="Off" fill="#adff63" d="M47.561,96.583c-0.031-0.009-0.063-0.019-0.095-0.027v0.736v0.006h0.001
				c0.003,1.517,1.128,2.746,2.519,2.746c1.261,0,2.295-1.013,2.481-2.331c-0.712-0.127-1.401-0.268-2.079-0.415
				C49.403,97.083,48.46,96.845,47.561,96.583z"/>
			<circle i:knockout="Off" fill="#adff63" cx="79.338" cy="29.882" r="2.427"/>
			<circle i:knockout="Off" fill="#adff63" cx="60.299" cy="30.069" r="2.427"/>
			<path i:knockout="Off" fill="#adff63" d="M69.63,32.174c-0.373,0-4.105,4.594-4.105,9.893c0,2.371,1.922,4.293,4.293,4.293
				s4.293-1.922,4.293-4.293C74.11,36.947,70.048,32.174,69.63,32.174z"/>
			<path i:knockout="Off" fill="#adff63" d="M89.154,25.33c-0.965,0.156-2.213,0.396-2.134,1.066
				c0.103,0.865,2.639-0.855,6.786,5.447c1.786,2.713,5.492,2.084,6.526,0.402c0.427-0.693,0.661-1.557,0.532-2.402
				C100.181,25.354,94.238,24.502,89.154,25.33z"/>
			<path i:knockout="Off" fill="#adff63" d="M45.828,31.844c4.147-6.303,6.684-4.582,6.786-5.447c0.079-0.67-1.168-0.91-2.134-1.066
				c-5.084-0.828-11.026,0.023-11.711,4.514c-0.129,0.846,0.106,1.709,0.532,2.402C40.336,33.928,44.042,34.557,45.828,31.844z"/>
			<path i:knockout="Off" fill="#adff63" d="M86.806,21.85c0.478,0.18,0.978-1.152,3.841-2.07c1.635-0.523,1.951-2.305,1.096-3.307
				c-0.676-0.787-1.971-1.322-3.289-0.416c-1.174,0.807-1.77,2.42-1.933,4.387C86.474,20.99,86.435,21.707,86.806,21.85z"/>
			<path i:knockout="Off" fill="#adff63" d="M49.224,19.779c2.863,0.918,3.362,2.25,3.841,2.07c0.371-0.143,0.331-0.859,0.285-1.406
				c-0.164-1.967-0.759-3.58-1.934-4.387c-1.318-0.906-2.613-0.371-3.288,0.416C47.271,17.475,47.589,19.256,49.224,19.779z"/>
		</g>
		<g i:knockout="Off">
			<path i:knockout="Off" fill="#adff63" d="M64.076,83.313c0,1.113,0.734,2.262,2.428,2.23c1.778-0.031,2.713-1.275,3.182-1.531
				c0.615,0.352,1.605,1.643,3.379,1.562c2.136-0.096,2.422-2.104,2.264-2.805c-0.256-2.678-4.526-5.609-5.643-6.158
				C68.535,77.278,64.141,80.478,64.076,83.313z"/>
		</g>
	</g>
</g>
</svg>
